# xmcd
#
# Track frame offsets: 
#        182
#        26600
#        46712
#        64897
#        82842
#        100865
#        119462
#        136547
#        161705
#        185412
#        204942
#        220565
#        245555
#
# Disc length: 3554 seconds
#
# Revision: 1
# Processed by: cddbd v1.5.2PL0 Copyright (c) Steve Scherf et al.
# Submitted via: ExactAudioCopy v1.0b3
#
DISCID=a30de00d
DTITLE=Changing Faces - Changing Faces
DYEAR=1994
DGENRE=R&B
TTITLE0=Stroke You Up
TTITLE1=Foolin' Around
TTITLE2=Lovin' Ya Boy
TTITLE3=One Of Those Things
TTITLE4=Keep It Right There
TTITLE5=Am I Wasting My Time
TTITLE6=Feeling All This Love
TTITLE7=Thoughts Of You
TTITLE8=Come Closer
TTITLE9=Baby Your Love
TTITLE10=Movin' On
TTITLE11=Good Thing
TTITLE12=All Is Not Gone
EXTD=
EXTT0=
EXTT1=
EXTT2=
EXTT3=
EXTT4=
EXTT5=
EXTT6=
EXTT7=
EXTT8=
EXTT9=
EXTT10=
EXTT11=
EXTT12=
PLAYORDER=
